# xmcd
#
# Track frame offsets: 
#        150
#        18750
#        36145
#        64852
#
# Disc length: 1153 seconds
#
# Revision: 0
# Processed by: cddbd v1.5.2PL0 Copyright (c) Steve Scherf et al.
# Submitted via: ExactAudioCopy v0.99pb4
#
DISCID=28047f04
DTITLE=LL Cool J - Around The Way Girl and Mama Said Knock You Out
DYEAR=1990
DGENRE=Rap
TTITLE0=Around The Way Girl (7'' Mix)
TTITLE1=Around The Way Girl (Jazzy Mix)
TTITLE2=Mama Said Knock You Out (12'' Remix)
TTITLE3=Mama Said Knock You Out (LP Version)
EXTD=
EXTT0=
EXTT1=
EXTT2=
EXTT3=
PLAYORDER=
